<?xml version="1.0" encoding="utf-8"?>
<!-- Generator: Adobe Illustrator 23.0.2, SVG Export Plug-In . SVG Version: 6.00 Build 0)  -->
<svg version="1.1" id="Layer_1" xmlns="http://www.w3.org/2000/svg" xmlns:xlink="http://www.w3.org/1999/xlink" x="0px" y="0px"
	 viewBox="0 0 333 416.3" style="enable-background:new 0 0 333 416.3;" xml:space="preserve">
<style type="text/css">
	.st0{fill-rule:evenodd;clip-rule:evenodd;}
</style>
<g>
	<path class="st0" d="M135.9,191.2l8.1-2.7l0,0l6.8,9.5l8.1,5.4l-4.1-19l6.8,8.1v-9.5v-8.1l2.7,8.1l8.1,9.5l2.7-20.4l-2.7-9.5
		l2.7-2.7l1.4,9.5l4.1,9.5l4.1-13.6l-1.4-16.3l1.4-1.4l2.7,10.9l4.1,8.1l2.7-14.9l-2.7-12.2l1.4-1.4l4.1,6.8l4.1,8.1l4.1-14.9V122
		l1.4-1.4l1.4,8.1l4.1,8.1l5.4-24.4l2.7,4.1l4.1,4.1l1.4-6.8l1.4-5.4l4.1,6.8l2.7,4.1l1.4-6.8l1.4-6.8l2.7,5.4l2.7,4.1l1.4-4.1
		l2.7-6.8l5.4,10.9l5.4-9.5l4.1,9.5l4.1-6.8l1.4,10.9l-2.7,9.5L218.8,160l-10.9,4.1l1.4,29.9l21.7,44.8l5.4,6.8l8.1,21.7l4.1,9.5
		l61.1,38l2.7,9.5l2.7-5.4l-6.8,12.2l-9.5,1.4l-4.1,12.2l-8.1-12.2l0,0l-5.4,10.9l-5.4-13.6l-8.1,10.9l-5.4-13.6l-8.1,9.5l-6.8-14.9
		l-6.8,10.9l-6.8-16.3l-6.8,9.5l-5.4-16.3l0,0l-5.4,10.9l-5.4-16.3l-2.7,4.1l-2.7,6.8l-1.4-4.1l-5.4-12.2l-4.1,10.9l-5.4-13.6
		l-1.4,4.1l-2.7,8.1l1.4-4.1c0-2.7-1.4-9.5-2.7-10.9l-4.1-12.2l-8.1,25.8l0,0l-24.4-1.4l10.9-1.4l-23.1-16.3l28.5,16.3l5.4-1.4
		l1.4-6.8l-51.6-61.1l-10.9-28.5l-1.4-5.4L83,211.6l-19,19l-29.9,2.7l25.8-4.1l20.4-20.4l25.8-8.1L135.9,191.2z M217.4,165.4
		l5.4,8.1l6.8,6.8l-1.4-20.4l0,0l1.4,2.7l2.7,1.4v-2.7l0,0l1.4-4.1l1.4,5.4l2.7-6.8h1.4l1.4,5.4l4.1-9.5l1.4,8.1l4.1-9.5l0,0
		l1.4,6.8l5.4-10.9l1.4,8.1l5.4-12.2l1.4-1.4l2.7,4.1l4.1-9.5v-9.5l1.4,5.4l2.7-8.1v-5.4l1.4-4.1V96.2l-20.4-29.9L206.6,50
		l-46.2,12.2l-66.5,39.4l-70.6,13.6L11,143.7l-2.7,73.3l12.2,25.8l35.3,51.6l20.4,32.6l180.6,44.8h43.5l24.4-19V323l-4.1-2.7
		l-1.4-6.8l-5.4-10.9l-5.4-4.1l-4.1,5.4l-6.8-12.2l-4.1,5.4l-4.1-12.2l-4.1,6.8l-5.4-12.2l-4.1,5.4l-5.4-12.2l-4.1,8.1l-1.4-5.4
		l-2.7-8.1l-2.7,4.1l-2.7-8.1l0,0l-5.4-13.6l-2.7,19l-4.1-34l-17.7-14.9l-12.2-54.3H217.4z M316.6,317.6l2.7-4.1L316.6,317.6
		L316.6,317.6z M243.2,66.3l-5.4,1.4l-2.7-5.4L243.2,66.3z M186.2,75.8l5.4-5.4l10.9-1.4l8.1,2.7L186.2,75.8z M65.3,126.1l-14.9-2.7
		l-6.8,6.8V141l5.4,12.2L47.7,141l4.1-10.9l8.1-4.1H65.3z M83,145.1l-13.6,4.1l-16.3-4.1l5.4,8.1l12.2,5.4l5.4-5.4L83,145.1z
		 M74.8,132.8l-2.7,2.7v4.1l1.4,4.1h2.7l1.4-5.4v-5.4H74.8z M85.7,135.6l4.1,4.1l-6.8,4.1l-4.1,1.4c1.4-2.7,2.7-5.4,2.7-6.8
		c0-2.7,0-4.1-1.4-5.4L85.7,135.6z M156.3,88l-65.2,29.9l-20.4,5.4L49,120.6l-8.1,9.5V141l5.4,13.6L64,166.8l14.9-12.2l28.5-38
		L156.3,88z M66.7,146.4l-8.1-1.4l-5.4-4.1l5.4-8.1l4.1-2.7l4.1-1.4c-4.1,1.4-5.4,5.4-5.4,9.5C61.2,141,62.6,145.1,66.7,146.4z
		 M110.1,271.4l-19-20.4l-12.2-20.4l2.7-9.5v9.5l10.9,19L110.1,271.4z M35.4,244.2l19,19l38,35.3l25.8,5.4l-25.8-9.5l-10.9-13.6
		l-8.1-9.5L64,255.1l9.5,21.7L35.4,244.2z"/>
</g>
<text transform="matrix(1 0 0 1 -205 174)" style="font-family:'Arial-BoldMT'; font-size:5px;">Created by rayhan maulana rikzan</text>
<text transform="matrix(1 0 0 1 -205 179)" style="font-family:'Arial-BoldMT'; font-size:5px;">from the Noun Project</text>
</svg>
